<mxfile host="app.diagrams.net" modified="2024-05-27T02:51:40.806Z" agent="Mozilla/5.0 (Windows NT 10.0; Win64; x64) AppleWebKit/537.36 (KHTML, like Gecko) Chrome/125.0.0.0 Safari/537.36" version="24.4.0" etag="S4wPoEEgvHW1BYNfunH0" type="github">
  <diagram name="페이지-1" id="P4uH_FfcUEOTkAxURQpC">
    <mxGraphModel>
      <root>
        <mxCell id="0" />
        <mxCell id="1" parent="0" />
      </root>
    </mxGraphModel>
  </diagram>
</mxfile>
